<?xml version="1.0" standalone="no"?>
<!DOCTYPE svg PUBLIC "-//W3C//DTD SVG 20010904//EN"
 "http://www.w3.org/TR/2001/REC-SVG-20010904/DTD/svg10.dtd">
<svg version="1.0" xmlns="http://www.w3.org/2000/svg"
 width="1280.000000pt" height="1280.000000pt" viewBox="0 0 1280.000000 1280.000000"
 preserveAspectRatio="xMidYMid meet">
<metadata>
Created by potrace 1.15, written by Peter Selinger 2001-2017
</metadata>
<g transform="translate(0.000000,1280.000000) scale(0.100000,-0.100000)"
fill="#000000" stroke="none">
<path d="M6310 12739 c-408 -293 -591 -535 -661 -874 -47 -225 6 -429 136
-527 71 -54 133 -73 236 -73 78 0 91 3 161 38 80 39 165 119 196 184 9 18 19
33 22 33 3 0 13 -15 22 -33 31 -65 116 -145 196 -184 70 -35 83 -38 161 -38
103 0 165 19 236 73 130 98 183 302 136 527 -63 306 -224 539 -545 787 -85 66
-201 148 -208 148 -2 0 -41 -28 -88 -61z"/>
<path d="M4356 12402 c-205 -277 -319 -511 -352 -725 -20 -122 -14 -331 10
-422 83 -305 317 -443 561 -331 110 50 213 185 231 301 3 25 9 45 11 45 3 0
24 -16 46 -36 87 -79 235 -125 342 -105 187 35 303 164 313 349 10 183 -81
388 -254 572 -161 172 -404 304 -761 413 l-82 25 -65 -86z"/>
<path d="M8210 12434 c-307 -103 -527 -228 -672 -382 -275 -292 -338 -632
-153 -817 143 -143 372 -146 542 -8 29 24 55 43 57 43 2 0 7 -20 10 -45 18
-116 121 -251 231 -301 245 -112 479 27 562 336 24 89 24 372 1 478 -23 98
-86 253 -152 370 -51 90 -186 292 -238 354 l-23 28 -165 -56z"/>
<path d="M2629 11554 c-91 -236 -149 -509 -149 -705 0 -481 286 -873 592 -810
155 32 267 137 308 290 6 25 12 82 11 128 0 61 4 83 12 79 135 -57 289 -62
392 -11 119 58 203 175 212 299 18 219 -165 460 -467 615 -180 93 -361 129
-687 138 l-212 6 -12 -29z"/>
<path d="M9785 11573 c-219 -19 -386 -62 -525 -134 -302 -155 -485 -396 -467
-615 9 -124 93 -241 212 -299 103 -51 258 -46 392 11 8 4 11 -19 11 -78 0 -93
12 -150 49 -221 71 -142 246 -229 395 -198 154 32 271 140 368 342 59 124 91
258 97 411 9 203 -26 405 -115 668 l-38 115 -170 1 c-93 0 -187 -1 -209 -3z"/>
<path d="M1715 10301 c-119 -22 -253 -57 -390 -103 l-100 -34 1 -199 c1 -303
35 -498 119 -673 154 -321 403 -518 631 -499 124 9 241 93 299 212 51 102 46
258 -11 391 -3 8 27 13 103 16 96 3 116 7 175 35 78 37 146 101 182 170 98
194 28 396 -187 536 -102 67 -180 101 -305 134 -133 35 -368 41 -517 14z"/>
<path d="M10628 10300 c-270 -57 -474 -185 -558 -350 -93 -182 -7 -411 188
-503 59 -28 79 -32 175 -35 76 -3 106 -8 103 -16 -57 -133 -62 -289 -11 -391
58 -119 175 -203 299 -212 228 -19 477 178 631 499 84 175 118 370 119 673 l1
199 -100 34 c-138 46 -302 88 -415 107 -129 20 -322 18 -432 -5z"/>
<path d="M1108 8796 c-206 -37 -440 -153 -710 -352 l-86 -65 25 -82 c68 -221
165 -442 255 -577 93 -141 268 -293 423 -369 317 -155 604 -47 656 247 19 106
-26 252 -105 339 -20 22 -36 43 -36 46 0 2 20 8 45 11 24 4 76 23 113 42 119
59 201 168 221 293 34 211 -105 386 -364 457 -81 22 -334 28 -437 10z"/>
<path d="M11300 8795 c-132 -27 -232 -76 -305 -149 -147 -147 -146 -368 2
-527 52 -56 160 -114 228 -125 25 -3 45 -9 45 -11 0 -3 -16 -24 -36 -46 -79
-87 -124 -233 -105 -339 33 -188 163 -306 349 -316 140 -8 267 33 419 134 262
174 429 433 566 881 l25 83 -101 74 c-284 206 -493 307 -704 342 -108 17 -295
17 -383 -1z"/>
<path d="M922 7150 c-171 -37 -335 -115 -466 -220 -127 -103 -296 -294 -418
-473 l-39 -57 50 -73 c229 -330 453 -529 706 -627 379 -146 701 -54 771 220
35 139 -12 288 -123 390 -31 29 -72 59 -90 68 -18 9 -33 18 -33 21 0 3 23 20
51 36 71 42 135 114 172 193 28 59 32 78 32 152 0 56 -6 102 -18 135 -37 107
-133 194 -252 231 -83 26 -235 27 -343 4z"/>
<path d="M11574 7155 c-160 -35 -262 -129 -300 -275 -35 -139 12 -288 123
-390 31 -29 72 -59 90 -68 18 -9 33 -19 33 -22 0 -3 -15 -13 -33 -22 -65 -31
-145 -116 -184 -196 -35 -70 -38 -83 -38 -161 0 -103 19 -165 73 -236 99 -130
302 -183 527 -136 180 37 329 106 471 216 125 98 289 281 415 462 l50 73 -39
57 c-122 179 -291 370 -418 473 -225 181 -545 274 -770 225z"/>
<path d="M1150 5502 c-91 -26 -147 -53 -248 -118 -106 -69 -251 -212 -317
-314 -74 -114 -158 -298 -219 -480 l-55 -165 27 -22 c56 -46 205 -150 289
-201 189 -114 362 -181 520 -202 113 -15 315 -8 398 14 150 40 284 136 333
237 90 187 6 416 -190 513 -37 19 -89 38 -113 42 -25 3 -45 9 -45 11 0 3 16
24 36 46 46 50 91 145 105 221 29 160 -62 336 -209 404 -76 35 -215 41 -312
14z"/>
<path d="M11383 5505 c-140 -43 -237 -164 -257 -320 -13 -98 35 -242 108 -322
20 -22 36 -43 36 -46 0 -2 -20 -8 -45 -11 -24 -4 -76 -23 -113 -42 -196 -97
-280 -326 -190 -513 49 -102 182 -196 338 -238 89 -24 372 -24 478 -1 102 24
259 89 382 159 96 56 276 177 342 232 l27 22 -55 165 c-61 182 -145 366 -219
480 -96 148 -300 325 -451 391 -126 56 -286 74 -381 44z"/>
<path d="M1839 3996 c-184 -53 -364 -228 -484 -471 -94 -189 -128 -373 -129
-690 l-1 -199 115 -39 c267 -89 465 -123 668 -114 322 13 618 164 722 367 92
180 7 412 -183 500 -70 33 -170 51 -241 43 -39 -5 -48 -3 -43 8 59 142 63 290
12 394 -62 127 -179 206 -314 211 -43 2 -96 -2 -122 -10z"/>
<path d="M10750 3995 c-106 -33 -214 -142 -245 -249 -28 -95 -17 -227 30 -340
8 -17 5 -19 -40 -14 -72 9 -172 -9 -242 -42 -154 -71 -247 -246 -214 -402 32
-154 140 -271 342 -368 124 -59 258 -91 411 -97 203 -9 401 25 668 114 l115
39 -1 199 c0 217 -12 326 -50 480 -67 272 -260 537 -469 643 -102 51 -214 65
-305 37z"/>
<path d="M2918 2755 c-185 -51 -332 -243 -409 -535 -27 -99 -36 -307 -19 -435
15 -122 57 -294 108 -445 l39 -115 199 1 c302 1 497 35 672 119 454 218 635
613 392 855 -119 120 -307 144 -497 64 -8 -4 -12 18 -12 79 1 46 -5 103 -11
128 -57 211 -264 339 -462 284z"/>
<path d="M9700 2756 c-115 -33 -203 -106 -250 -209 -33 -70 -51 -170 -43 -241
5 -39 3 -48 -8 -43 -142 59 -290 63 -394 12 -119 -58 -203 -175 -212 -299 -19
-228 178 -477 499 -631 175 -84 370 -118 672 -119 l199 -1 39 115 c157 465
158 799 3 1111 -69 141 -198 268 -302 299 -60 18 -154 21 -203 6z"/>
<path d="M4347 1910 c-155 -26 -277 -162 -334 -370 -24 -88 -25 -372 -1 -478
23 -98 86 -253 152 -370 50 -89 185 -289 239 -354 l22 -27 164 55 c307 102
524 225 666 376 99 105 185 237 227 347 29 78 32 97 32 201 1 104 -1 120 -26
172 -69 147 -244 238 -404 209 -76 -14 -171 -59 -221 -105 -22 -20 -43 -36
-46 -36 -2 0 -8 20 -11 45 -17 113 -115 244 -224 299 -40 20 -160 50 -182 45
-3 -1 -26 -5 -53 -9z"/>
<path d="M8322 1909 c-117 -20 -229 -106 -286 -221 -19 -37 -38 -89 -42 -113
-3 -25 -9 -45 -11 -45 -3 0 -24 16 -46 36 -51 46 -147 92 -224 105 -159 28
-332 -62 -401 -209 -25 -52 -27 -68 -26 -172 0 -104 3 -123 32 -201 66 -174
244 -395 402 -498 139 -90 357 -187 577 -254 l81 -25 65 87 c204 273 320 510
353 724 20 122 14 331 -10 422 -72 263 -247 400 -464 364z"/>
<path d="M5910 1525 c-64 -18 -139 -64 -176 -107 -63 -76 -103 -203 -104 -326
0 -133 58 -338 137 -482 96 -175 303 -383 560 -561 l73 -50 60 41 c32 22 105
76 160 120 321 256 468 470 531 775 47 225 -6 428 -136 527 -71 54 -133 73
-236 73 -78 0 -91 -3 -161 -38 -80 -39 -165 -119 -196 -184 -9 -18 -19 -33
-22 -33 -3 0 -13 15 -22 33 -9 18 -39 59 -68 90 -102 112 -261 160 -400 122z"/>
</g>
</svg>
